<svg id="Layer_1" data-name="Layer 1" xmlns="http://www.w3.org/2000/svg" viewBox="0 0 2808 338.29"><defs><style>.cls-1{fill:#6f6f6e;}.cls-2{fill:#3c3c3b;}.cls-3{fill:#2160aa;}.cls-4{fill:#f8e82b;}.cls-5{fill:#df2329;}.cls-6{fill:#fff;}</style></defs><path class="cls-1" d="M375.79,319.05v-9.31q-7,11-20.66,11a29.1,29.1,0,0,1-16.27-4.87,32.42,32.42,0,0,1-11.47-13.56,47.43,47.43,0,0,1-4-20.1,52.21,52.21,0,0,1,3.68-20,29,29,0,0,1,11-13.83,29.58,29.58,0,0,1,16.49-4.8A24.79,24.79,0,0,1,375,253.69V217.12H387.4V319.05ZM336.22,282.2q0,14.18,6,21.21t14.12,7a17.65,17.65,0,0,0,13.91-6.68Q376,297,376,283.24q0-15.15-5.85-22.24t-14.39-7.1a17.39,17.39,0,0,0-14,6.82c-3.7,4.52-5.56,11.7-5.56,21.48"/><path class="cls-1" d="M451.38,295.26l12.93,1.62q-3.06,11.33-11.34,17.59t-21.14,6.25q-16.2,0-25.73-9.93t-9.45-28q0-18.63,9.59-28.92t24.9-10.3q14.81,0,24.2,10.08T464.73,282c0,.76,0,1.86-.07,3.35H409.58q.69,12.18,6.89,18.63a20.45,20.45,0,0,0,15.43,6.48,19.14,19.14,0,0,0,11.75-3.62c3.24-2.41,5.82-6.25,7.73-11.56M410.28,275h41.23q-.84-9.32-4.73-14a19.18,19.18,0,0,0-15.5-7.22,20,20,0,0,0-14.54,5.76q-5.83,5.76-6.46,15.44"/><path class="cls-1" d="M537.81,319.05l-39.5-102h14.6l26.5,74.07c2.12,5.94,3.91,11.49,5.36,16.69q2.36-8.34,5.48-16.69l27.54-74.07h13.77l-39.91,102Z"/><path class="cls-1" d="M646.36,295.26l12.93,1.62q-3.06,11.33-11.34,17.59t-21.13,6.25q-16.22,0-25.74-9.93t-9.45-28q0-18.63,9.59-28.92t24.9-10.3q14.8,0,24.2,10.08T659.71,282c0,.76,0,1.86-.07,3.35H604.56q.71,12.18,6.88,18.63a20.5,20.5,0,0,0,15.45,6.48,19.16,19.16,0,0,0,11.75-3.62c3.25-2.41,5.81-6.25,7.72-11.56M605.25,275h41.24q-.82-9.32-4.72-14a19.19,19.19,0,0,0-15.51-7.22,20,20,0,0,0-14.53,5.76q-5.84,5.76-6.48,15.44"/><path class="cls-1" d="M668.75,319.05V245.2H680v10.51q8.15-12.17,23.51-12.17A30.1,30.1,0,0,1,715.76,246a19,19,0,0,1,8.41,6.25,24.09,24.09,0,0,1,3.89,9.24,72.93,72.93,0,0,1,.71,12.18v45.4H716.24V274.13q0-7.63-1.46-11.4a11.78,11.78,0,0,0-5.21-6.05,16.23,16.23,0,0,0-8.7-2.3A20.4,20.4,0,0,0,687,259.46q-5.76,5.09-5.77,19.26v40.33Z"/><path class="cls-1" d="M792.25,295.26l12.93,1.62q-3.06,11.33-11.33,17.59t-21.15,6.25q-16.19,0-25.72-9.93t-9.46-28q0-18.63,9.6-28.92T772,243.54q14.81,0,24.2,10.08t9.4,28.36c0,.76,0,1.86-.08,3.35H750.45q.69,12.18,6.89,18.63a20.45,20.45,0,0,0,15.43,6.48,19.17,19.17,0,0,0,11.76-3.62c3.24-2.41,5.82-6.25,7.72-11.56M751.15,275h41.23q-.82-9.32-4.72-14a19.19,19.19,0,0,0-15.51-7.22,20,20,0,0,0-14.53,5.76q-5.85,5.76-6.47,15.44"/><path class="cls-1" d="M808,319.05V308.91l47-54q-8,.42-14.12.42H810.81V245.2h60.36v8.28l-40,46.86-7.72,8.57q8.41-.63,15.78-.62H873.4v10.76Z"/><path class="cls-1" d="M928,319.05V308.22q-8.62,12.51-23.44,12.5a30.27,30.27,0,0,1-12.24-2.49A20.38,20.38,0,0,1,883.9,312a24.07,24.07,0,0,1-3.82-9.31,63.57,63.57,0,0,1-.77-11.69V245.2h12.52v41c0,6.53.24,10.95.76,13.21a13.25,13.25,0,0,0,5,7.8,15.58,15.58,0,0,0,9.46,2.77,20.66,20.66,0,0,0,10.57-2.85,16.16,16.16,0,0,0,7-7.85c1.38-3.34,2.08-8.15,2.08-14.47V245.2h12.51v73.85Z"/><path class="cls-1" d="M1003.08,295.26l12.93,1.62q-3,11.33-11.33,17.59t-21.13,6.25q-16.21,0-25.73-9.93t-9.46-28q0-18.63,9.6-28.92t24.88-10.3q14.83,0,24.21,10.08t9.39,28.36c0,.76,0,1.86-.08,3.35H961.3q.69,12.18,6.88,18.63a20.46,20.46,0,0,0,15.44,6.48,19.23,19.23,0,0,0,11.76-3.62c3.23-2.41,5.81-6.25,7.7-11.56M962,275h41.24q-.84-9.32-4.73-14A19.22,19.22,0,0,0,983,253.84a20,20,0,0,0-14.54,5.76Q962.61,265.36,962,275"/><rect class="cls-1" x="1025.2" y="217.1" width="12.51" height="101.95"/><path class="cls-1" d="M1099.05,309.94a45.92,45.92,0,0,1-13.42,8.35,38.48,38.48,0,0,1-13.76,2.44q-12.19,0-18.71-5.91a19.71,19.71,0,0,1-6.54-15.24,20.1,20.1,0,0,1,2.43-9.86,20.8,20.8,0,0,1,6.46-7.24,30.57,30.57,0,0,1,9-4.1,86.48,86.48,0,0,1,11.12-1.88q15.16-1.8,22.33-4.31c0-1.72,0-2.81.07-3.27q0-7.65-3.56-10.79-4.79-4.23-14.25-4.23c-5.89,0-10.25,1-13.07,3.13s-4.85,5.68-6.19,10.91l-12.23-1.67a29.78,29.78,0,0,1,5.49-12.65,23.74,23.74,0,0,1,11-7.44,48.75,48.75,0,0,1,16.75-2.64q9.47,0,15.37,2.23t8.7,5.63a19.47,19.47,0,0,1,3.89,8.48,68.91,68.91,0,0,1,.63,11.55V288.1q0,17.47.77,22.13a28.31,28.31,0,0,0,3.19,8.81h-13.07a26,26,0,0,1-2.5-9.1M1098,282c-4.55,1.86-11.36,3.42-20.45,4.73-5.14.75-8.79,1.58-10.92,2.52a10.62,10.62,0,0,0-4.93,4.09,10.46,10.46,0,0,0-1.74,5.92,10.64,10.64,0,0,0,3.75,8.33c2.55,2.24,6.27,3.34,11.13,3.34a26.25,26.25,0,0,0,12.87-3.12,19.72,19.72,0,0,0,8.27-8.71q2-4.21,2-12.52Z"/><path class="cls-1" d="M377.17,161.73v-12l43.19-.06v37.84a77.23,77.23,0,0,1-20.51,12,61.4,61.4,0,0,1-21.7,4,58.15,58.15,0,0,1-27.33-6.41,42.74,42.74,0,0,1-18.5-18.63,58.63,58.63,0,0,1-6.26-27.19,63.22,63.22,0,0,1,6.19-27.75,41.45,41.45,0,0,1,17.94-19.18Q361.88,98,377.11,98a52.49,52.49,0,0,1,20,3.63,32.8,32.8,0,0,1,14,9.93c3.39,4.26,6,9.84,7.72,16.69l-12.17,3.34a37.86,37.86,0,0,0-5.7-12.24,23.18,23.18,0,0,0-9.74-7.09,35.41,35.41,0,0,0-14.05-2.71,40.94,40.94,0,0,0-16,2.84,29.84,29.84,0,0,0-10.91,7.37,35.82,35.82,0,0,0-6.4,10.09,53.29,53.29,0,0,0-3.9,20.51q0,13.65,4.67,22.81a30.16,30.16,0,0,0,13.69,13.63,42.27,42.27,0,0,0,19.06,4.45,45.35,45.35,0,0,0,17.1-3.34q8.34-3.41,12.66-7.23v-19Z"/><path class="cls-1" d="M427.73,164.79q0-20.52,11.41-30.39,9.54-8.2,23.23-8.2,15.22,0,24.89,10t9.66,27.55q0,14.25-4.31,22.45a30,30,0,0,1-12.45,12.66,36.18,36.18,0,0,1-17.79,4.53q-15.53,0-25.12-10t-9.52-28.64m12.86,0q0,14.19,6.2,21.28a19.87,19.87,0,0,0,15.58,7,19.64,19.64,0,0,0,15.49-7.1q6.19-7.08,6.2-21.61,0-13.71-6.26-20.73a19.65,19.65,0,0,0-15.43-7.1,19.91,19.91,0,0,0-15.58,7q-6.19,7-6.2,21.21"/><path class="cls-1" d="M516.88,201.72H505.26v-102h12.53v36.38q7.92-9.93,20.23-9.95A30.47,30.47,0,0,1,550.88,129a25.63,25.63,0,0,1,10,7.73,36.67,36.67,0,0,1,6.19,12,49.56,49.56,0,0,1,2.22,15q0,19-9.38,29.35t-22.54,10.36q-13.07,0-20.51-10.92Zm-.14-37.49q0,13.29,3.61,19.2,5.91,9.66,16,9.66,8.21,0,14.18-7.1t6-21.27q0-14.46-5.77-21.34t-13.84-6.9q-8.22,0-14.19,7.18t-6,20.57"/><path class="cls-1" d="M578.35,99.77h12.51v14.4H578.35Zm0,28.09h12.51v73.85H578.35Z"/><path class="cls-1" d="M654.22,177.93l12.93,1.6q-3.06,11.34-11.34,17.6t-21.14,6.25q-16.2,0-25.72-9.93t-9.46-28q0-18.64,9.59-28.93t24.9-10.3q14.81,0,24.2,10.09t9.39,28.37c0,.74,0,1.85-.08,3.33H612.42q.71,12.2,6.89,18.65a20.46,20.46,0,0,0,15.43,6.46,19.17,19.17,0,0,0,11.76-3.61q4.86-3.63,7.72-11.55m-41.1-20.23h41.23q-.83-9.31-4.73-14a19.19,19.19,0,0,0-15.5-7.23,20,20,0,0,0-14.54,5.77q-5.83,5.78-6.46,15.44"/><path class="cls-1" d="M676.46,201.72V127.86h11.27v11.2q4.31-7.84,7.93-10.36a14.05,14.05,0,0,1,8.07-2.51,24.43,24.43,0,0,1,12.86,4l-4.31,11.6a18,18,0,0,0-9.18-2.71,11.73,11.73,0,0,0-7.37,2.52,13.07,13.07,0,0,0-4.66,6.81,48.73,48.73,0,0,0-2.09,14.6v38.67Z"/><path class="cls-1" d="M722,201.72V127.86h11.26v10.51q8.13-12.18,23.51-12.18A30.3,30.3,0,0,1,769,128.63a19.11,19.11,0,0,1,8.41,6.25,24.37,24.37,0,0,1,3.9,9.25A72.45,72.45,0,0,1,782,156.3v45.42H769.47V156.79q0-7.65-1.46-11.4a11.72,11.72,0,0,0-5.22-6,16.14,16.14,0,0,0-8.69-2.3,20.36,20.36,0,0,0-13.84,5.09q-5.76,5.07-5.76,19.26v40.33Z"/><path class="cls-1" d="M790.26,164.79q0-20.52,11.41-30.39,9.51-8.2,23.22-8.2,15.24,0,24.9,10t9.67,27.55q0,14.25-4.32,22.45a29.86,29.86,0,0,1-12.45,12.66,36.16,36.16,0,0,1-17.8,4.53q-15.51,0-25.1-10t-9.53-28.64m12.86,0q0,14.19,6.2,21.28a20.64,20.64,0,0,0,31.09-.08q6.18-7.08,6.18-21.61,0-13.71-6.25-20.73a19.71,19.71,0,0,0-15.45-7.1,19.92,19.92,0,0,0-15.57,7q-6.2,7-6.2,21.21"/><path class="cls-2" d="M902.22,99.77H943a113.78,113.78,0,0,1,18,1,25.55,25.55,0,0,1,18.5,12.72,22.9,22.9,0,0,1,3.13,11.91,24.28,24.28,0,0,1-14.32,22.1c6.21,1.82,11,4.89,14.32,9.25a24.58,24.58,0,0,1,5,15.37,30.33,30.33,0,0,1-3.26,13.56,27.18,27.18,0,0,1-8.84,10.5,29.22,29.22,0,0,1-13.76,4.8q-5.16.55-24.82.7H902.22Zm20.58,17V140.3h13.49c8,0,13-.1,15-.33a13.63,13.63,0,0,0,8.27-3.62,10.8,10.8,0,0,0,3.05-8,11,11,0,0,0-2.64-7.65c-1.71-2-4.29-3.19-7.71-3.62q-3.06-.35-17.6-.35Zm0,40.55v27.26h19.05c7.42,0,12.14-.21,14.12-.62a12.77,12.77,0,0,0,7.45-4,12.51,12.51,0,0,0,2.91-8.69,13.21,13.21,0,0,0-2.24-7.79,12.56,12.56,0,0,0-6.46-4.66q-4.17-1.45-18.21-1.46Z"/><path class="cls-2" d="M994.07,163.75a40,40,0,0,1,4.81-18.85A33.07,33.07,0,0,1,1012.43,131a40.58,40.58,0,0,1,19.69-4.79q16.74,0,27.46,10.92t10.72,27.46q0,16.75-10.86,27.81t-27.19,11a43.13,43.13,0,0,1-19.4-4.59,31.7,31.7,0,0,1-14-13.42q-4.8-8.91-4.81-21.63m20,1q0,11,5.21,16.83a17,17,0,0,0,25.67,0q5.21-5.85,5.2-17,0-10.85-5.2-16.69a17,17,0,0,0-25.67,0q-5.21,5.83-5.21,16.83"/><rect class="cls-2" x="1079.33" y="99.77" width="19.53" height="101.95"/><path class="cls-2" d="M1112.64,99.77h19.54v18.08h-19.54Zm0,28.09h19.54v73.85h-19.54Z"/><path class="cls-2" d="M1166.25,201.72l-29.76-73.86H1157l13.92,37.7,4,12.59q1.61-4.8,2-6.34c.66-2.09,1.34-4.16,2.09-6.25l14-37.7h20.1l-29.34,73.86Z"/><path class="cls-2" d="M1233.5,150.4l-17.74-3.2q3-10.71,10.3-15.86t21.69-5.14q13.07,0,19.47,3.12t9,7.86q2.64,4.74,2.65,17.46l-.22,22.81a83.06,83.06,0,0,0,.91,14.4,43.11,43.11,0,0,0,3.55,9.87h-19.34c-.51-1.3-1.13-3.22-1.87-5.78-.33-1.16-.56-1.92-.7-2.3a35.05,35.05,0,0,1-10.71,7.31,30.86,30.86,0,0,1-12.17,2.44q-11.4,0-18-6.19a20.58,20.58,0,0,1-6.52-15.65,20.84,20.84,0,0,1,3-11.12,19.22,19.22,0,0,1,8.35-7.52q5.43-2.64,15.58-4.58,13.69-2.58,19-4.81v-1.94c0-3.76-.93-6.43-2.79-8s-5.36-2.45-10.49-2.45c-3.49,0-6.2.71-8.15,2.09s-3.52,3.73-4.72,7.17m26.15,15.85a122.09,122.09,0,0,1-11.9,3q-8.13,1.73-10.64,3.4a8.15,8.15,0,0,0-3.82,6.88,9.55,9.55,0,0,0,3.06,7.1,10.68,10.68,0,0,0,7.78,3,16.9,16.9,0,0,0,10.09-3.48,12.31,12.31,0,0,0,4.66-6.47c.51-1.67.77-4.84.77-9.53Z"/><path class="cls-2" d="M1310.54,201.72H1291V127.86h18.16v10.51q4.66-7.45,8.34-9.82a15.77,15.77,0,0,1,8.49-2.36,24.89,24.89,0,0,1,12.87,3.68l-6,17c-3.3-2.13-6.37-3.2-9.18-3.2a10.66,10.66,0,0,0-6.95,2.3c-1.91,1.48-3.42,4.2-4.53,8.13s-1.6,12.2-1.6,24.75Z"/><path class="cls-2" d="M1341,99.77h19.54v18.08H1341Zm0,28.09h19.54v73.85H1341Z"/><path class="cls-2" d="M1388.91,150.4l-17.73-3.2q3-10.71,10.29-15.86t21.69-5.14q13.1,0,19.48,3.12c4.26,2.05,7.26,4.67,9,7.86s2.64,9,2.64,17.46l-.2,22.81a83.51,83.51,0,0,0,.89,14.4,43.59,43.59,0,0,0,3.55,9.87h-19.33c-.51-1.3-1.13-3.22-1.89-5.78-.31-1.16-.55-1.92-.68-2.3a35.09,35.09,0,0,1-10.72,7.31,30.8,30.8,0,0,1-12.15,2.44q-11.43,0-18-6.19a22.06,22.06,0,0,1-3.55-26.77,19.27,19.27,0,0,1,8.35-7.52q5.41-2.64,15.58-4.58,13.7-2.58,19-4.81v-1.94c0-3.76-.93-6.43-2.78-8s-5.35-2.45-10.51-2.45c-3.47,0-6.19.71-8.13,2.09s-3.52,3.73-4.73,7.17m26.15,15.85a119.81,119.81,0,0,1-11.9,3q-8.13,1.73-10.64,3.4a8.12,8.12,0,0,0-3.81,6.88,9.58,9.58,0,0,0,3,7.1,10.69,10.69,0,0,0,7.79,3,16.9,16.9,0,0,0,10.09-3.48,12.29,12.29,0,0,0,4.65-6.47c.52-1.67.77-4.84.77-9.53Z"/><path class="cls-2" d="M1514.43,201.72h-19.55V164q0-12-1.25-15.44a10.67,10.67,0,0,0-4.1-5.49,11.36,11.36,0,0,0-6.74-1.95,15.65,15.65,0,0,0-9.12,2.78,14.13,14.13,0,0,0-5.55,7.38q-1.47,4.58-1.47,17v33.45h-19.54V127.86h18.15v10.85q9.67-12.51,24.33-12.52a29,29,0,0,1,11.83,2.36,19.34,19.34,0,0,1,8.07,5.92,21,21,0,0,1,3.83,8.2,59.51,59.51,0,0,1,1.11,13.16Z"/><path class="cls-2" d="M1523.47,163.75a40,40,0,0,1,4.8-18.85A33.07,33.07,0,0,1,1541.82,131a40.55,40.55,0,0,1,19.69-4.79q16.74,0,27.45,10.92t10.73,27.46q0,16.75-10.87,27.81t-27.18,11a43.13,43.13,0,0,1-19.4-4.59,31.6,31.6,0,0,1-14-13.42q-4.8-8.91-4.8-21.63m20,1q0,11,5.21,16.83a16.58,16.58,0,0,0,12.86,5.84,16.38,16.38,0,0,0,12.8-5.84q5.22-5.85,5.22-17,0-10.85-5.22-16.69a16.34,16.34,0,0,0-12.8-5.83,16.54,16.54,0,0,0-12.86,5.83q-5.22,5.83-5.21,16.83"/><path class="cls-3" d="M293.78,99.41v86.26a213.92,213.92,0,0,1-17.88,13.21c-25.91,17-58,22.47-77.81,24.21l-9.74-62.65a207.27,207.27,0,0,0,72.84-31.93,174.74,174.74,0,0,0,32.59-29.1"/><path class="cls-3" d="M22.78,232.83v87.6s43-56.62,84-82.52,91-31.53,91-31.53L186,144.27s-47.85-8.43-99.48,26-63.73,62.57-63.73,62.57"/><path class="cls-4" d="M186.36,144.91c-8.54-.2-58.06-.26-95.44,23.34C54,191.57,27.52,228.09,22.59,235.16v-81.6S38.92,125.41,84.48,101C123.13,80.29,176.29,82,176.29,82Z"/><path class="cls-5" d="M23.06,320s29.7-46.75,81.33-81.17c38.38-25.59,75.27-31.86,91.67-33.39l10.33,64.47S180,268.39,156.7,281.36c-26.93,15-49.67,38.69-49.67,38.69h-84Z"/><polygon class="cls-6" points="233.86 191.09 231.76 181.98 222.47 181.14 230.47 176.35 228.37 167.24 235.41 173.38 243.41 168.58 239.76 177.17 246.8 183.32 237.5 182.49 233.86 191.09"/><polygon class="cls-6" points="266.41 175.7 264.31 166.6 255.02 165.76 263.02 160.96 260.92 151.86 267.96 158 275.96 153.2 272.31 161.8 279.36 167.93 270.06 167.11 266.41 175.7"/><polygon class="cls-6" points="57.31 253.48 48.01 252.66 44.36 261.25 42.25 252.15 32.94 251.33 40.95 246.53 38.83 237.46 45.88 243.57 53.88 238.77 50.25 247.36 57.31 253.48"/><polygon class="cls-6" points="148.64 190 139.34 189.17 135.7 197.76 133.58 188.67 124.28 187.85 132.28 183.05 130.17 173.96 137.23 180.09 145.22 175.28 141.59 183.87 148.64 190"/><polygon class="cls-6" points="114.89 205.94 105.58 205.12 101.95 213.71 99.83 204.61 90.53 203.8 98.53 198.99 96.41 189.91 103.46 196.03 111.47 191.23 107.83 199.81 114.89 205.94"/><polygon class="cls-6" points="84.53 228.53 75.22 227.71 71.59 236.29 69.47 227.19 60.16 226.39 68.16 221.59 66.05 212.49 73.11 218.62 81.11 213.81 77.47 222.41 84.53 228.53"/><polygon class="cls-6" points="183.95 183.77 174.64 182.95 171.01 191.54 168.89 182.45 159.59 181.63 167.58 176.83 165.47 167.74 172.53 173.86 180.53 169.06 176.9 177.65 183.95 183.77"/><path class="cls-4" d="M293.78,99.41a174.74,174.74,0,0,1-32.59,29.1,207.27,207.27,0,0,1-72.84,31.93L178.32,96s19.56-3.27,52.23-21.59c44.19-24.79,63.23-61,63.23-61Z"/><path class="cls-5" d="M198.09,223.08c19.8-1.73,51.89-7.22,77.81-24.2a213.92,213.92,0,0,0,17.88-13.21V260s-13.21,8.54-36.65,17.75-48.54,12.95-48.54,12.95Z"/><polygon class="cls-6" points="199.79 200.03 197.69 190.92 192.9 190.5 192.47 187.65 196.39 185.29 194.29 176.18 201.33 182.32 209.33 177.52 205.68 186.11 212.72 192.26 203.43 191.43 199.79 200.03"/><rect class="cls-2" x="1668.77" y="95.78" width="6" height="221.87"/><path class="cls-1" d="M1745.88,243.13V182.28H1758l14.52,43c1.34,4,2.31,7,2.93,9,.68-2.21,1.8-5.43,3.27-9.73l14.64-42.27H1804v60.85h-7.83V192.2l-17.79,50.93h-7.08l-17.61-51.72v51.72Z"/><path class="cls-1" d="M1815,182.28h7.39v8.54H1815Zm0,16.78h7.39v44.07H1815Z"/><path class="cls-1" d="M1832.82,243.13V199.06h6.7v6.25c3.22-4.83,7.93-7.24,14-7.24a18.61,18.61,0,0,1,7.31,1.42,11.48,11.48,0,0,1,5,3.76,13.63,13.63,0,0,1,2.31,5.52,41,41,0,0,1,.43,7.25v27.11h-7.37v-26.9a20,20,0,0,0-.9-6.81,6.94,6.94,0,0,0-3.12-3.62,10.08,10.08,0,0,0-5.2-1.36,12.11,12.11,0,0,0-8.33,3.06c-2.29,2-3.49,5.83-3.49,11.52v24.11Z"/><path class="cls-1" d="M1879.16,182.28h7.39v8.54h-7.39Zm0,16.78h7.39v44.07h-7.39Z"/><path class="cls-1" d="M1894,229.76l7.37-1a10.41,10.41,0,0,0,3.45,6.86c1.92,1.59,4.54,2.37,8,2.37s6-.72,7.67-2.11A6.27,6.27,0,0,0,1923,231a4.61,4.61,0,0,0-2.22-4c-1-.64-3.55-1.49-7.62-2.51a72.63,72.63,0,0,1-11.41-3.6,11.28,11.28,0,0,1-4.84-4.19,10.91,10.91,0,0,1-1.61-5.9,11.36,11.36,0,0,1,1.31-5.44,12.49,12.49,0,0,1,3.65-4.18A16.91,16.91,0,0,1,1905,199a22.82,22.82,0,0,1,6.46-.89,25.77,25.77,0,0,1,9.08,1.49,12.43,12.43,0,0,1,5.79,4.06,16.58,16.58,0,0,1,2.57,6.82l-7.24,1a8.16,8.16,0,0,0-2.9-5.33,10.61,10.61,0,0,0-6.75-1.9c-3.43,0-5.87.55-7.36,1.7a5,5,0,0,0-2.2,4,4.2,4.2,0,0,0,.9,2.59,7,7,0,0,0,2.87,2c.77.29,3,.91,6.58,1.92a88.91,88.91,0,0,1,11.11,3.46,11.41,11.41,0,0,1,4.93,3.93,11.29,11.29,0,0,1,1.72,6.38,12.27,12.27,0,0,1-2.16,7,13.88,13.88,0,0,1-6.28,5.09,23.33,23.33,0,0,1-9.32,1.78c-5.72,0-10.09-1.18-13.11-3.6s-4.92-6-5.73-10.72"/><path class="cls-1" d="M1955,236.45l1,6.53a25.46,25.46,0,0,1-5.63.7,12.65,12.65,0,0,1-6.31-1.28,7.25,7.25,0,0,1-3.19-3.36c-.61-1.43-.92-4.34-.92-8.83v-25.3h-5.53v-5.85h5.53V188.14l7.41-4.45v15.37H1955v5.85h-7.65V230.6a14.28,14.28,0,0,0,.37,4.1,3.17,3.17,0,0,0,1.37,1.46,5,5,0,0,0,2.56.58,27.49,27.49,0,0,0,3.35-.29"/><path class="cls-1" d="M1991.39,228.89l7.67,1a19,19,0,0,1-6.74,10.47c-3.27,2.49-7.5,3.7-12.65,3.7-6.37,0-11.48-2-15.24-5.94s-5.64-9.53-5.64-16.7c0-7.4,1.88-13.16,5.67-17.23s8.77-6.14,14.85-6.14a18.69,18.69,0,0,1,14.38,6c3.75,4,5.58,9.6,5.58,16.86,0,.43,0,1.1,0,2h-32.8c.29,4.81,1.67,8.6,4.11,11.17a12.15,12.15,0,0,0,9.18,3.88,11.45,11.45,0,0,0,7-2.14,15,15,0,0,0,4.61-7m-24.52-12.11h24.6c-.33-3.67-1.28-6.43-2.8-8.3a11.45,11.45,0,0,0-9.24-4.31,11.88,11.88,0,0,0-8.69,3.47,13.67,13.67,0,0,0-3.87,9.14"/><path class="cls-1" d="M2007.43,243.13V199.06h6.69v6.63c1.69-3.12,3.31-5.16,4.73-6.15a8.2,8.2,0,0,1,4.74-1.47,14.35,14.35,0,0,1,7.6,2.41l-2.62,6.83a10.64,10.64,0,0,0-5.38-1.56,6.92,6.92,0,0,0-4.34,1.47,7.59,7.59,0,0,0-2.74,4.07,28.53,28.53,0,0,0-1.27,8.74v23.1Z"/><path class="cls-1" d="M2034.86,182.28h7.39v8.54h-7.39Zm0,16.78h7.39v44.07h-7.39Z"/><path class="cls-1" d="M2049.91,221.08c0-8.17,2.29-14.19,6.79-18.12a20.59,20.59,0,0,1,13.87-4.89c6,0,11,2,14.83,5.92s5.72,9.46,5.72,16.49c0,5.66-.81,10.1-2.5,13.35a17.88,17.88,0,0,1-7.46,7.58,21.47,21.47,0,0,1-10.59,2.67q-9.24,0-14.94-5.9c-3.8-4-5.72-9.67-5.72-17.1m7.72,0c0,5.67,1.17,9.9,3.68,12.7a11.56,11.56,0,0,0,9.26,4.23,11.9,11.9,0,0,0,9.23-4.23c2.44-2.84,3.69-7.12,3.69-12.95,0-5.49-1.25-9.61-3.74-12.41a12.19,12.19,0,0,0-18.44,0c-2.51,2.78-3.68,7-3.68,12.69"/><path class="cls-1" d="M2150.22,243.13v-5.55q-4.23,6.51-12.41,6.5a17.53,17.53,0,0,1-9.71-2.87,19.25,19.25,0,0,1-6.87-8.14,27.92,27.92,0,0,1-2.43-11.94,31.7,31.7,0,0,1,2.21-12,17.31,17.31,0,0,1,16.54-11.06,14.72,14.72,0,0,1,7.16,1.66,14.37,14.37,0,0,1,5.06,4.32V182.28h7.41v60.85Zm-23.79-22c0,5.67,1.22,9.92,3.62,12.71a10.69,10.69,0,0,0,16.86.17c2.31-2.66,3.4-6.73,3.4-12.23q0-9.12-3.47-13.33a10.82,10.82,0,0,0-8.65-4.23,10.39,10.39,0,0,0-8.37,4.06c-2.24,2.7-3.39,7-3.39,12.85"/><path class="cls-1" d="M2197.93,228.89l7.64,1a18.63,18.63,0,0,1-6.73,10.47c-3.3,2.49-7.51,3.7-12.59,3.7-6.39,0-11.51-2-15.27-5.94s-5.64-9.53-5.64-16.7c0-7.4,1.9-13.16,5.69-17.23a19.22,19.22,0,0,1,14.78-6.14,18.8,18.8,0,0,1,14.45,6c3.69,4,5.56,9.6,5.56,16.86,0,.43,0,1.1,0,2H2173c.27,4.81,1.64,8.6,4.14,11.17a12.08,12.08,0,0,0,9.18,3.88,11.63,11.63,0,0,0,7-2.14,14.51,14.51,0,0,0,4.6-7m-24.53-12.11H2198c-.36-3.67-1.27-6.43-2.81-8.3a11.37,11.37,0,0,0-9.25-4.31,11.72,11.72,0,0,0-8.64,3.47,13.71,13.71,0,0,0-3.91,9.14"/><rect class="cls-1" x="2213.91" y="182.28" width="7.35" height="60.85"/><path class="cls-1" d="M2255.61,243.13V182.28h22.9a54.7,54.7,0,0,1,9.21.6,17.84,17.84,0,0,1,7.52,2.82,15,15,0,0,1,4.86,5.83,19.87,19.87,0,0,1-3.08,21.34q-5,5.37-17.8,5.37h-15.53v24.89Zm8.08-32h15.69c5.19,0,8.87-1,11-2.91a10.45,10.45,0,0,0,3.27-8.17,11.12,11.12,0,0,0-1.95-6.54,9.1,9.1,0,0,0-5.05-3.6,35.74,35.74,0,0,0-7.48-.54h-15.53Z"/><path class="cls-1" d="M2307.51,221.08c0-8.17,2.26-14.19,6.81-18.12a20.41,20.41,0,0,1,13.85-4.89c6,0,11,2,14.8,5.92s5.78,9.46,5.78,16.49c0,5.66-.85,10.1-2.53,13.35a18.54,18.54,0,0,1-7.44,7.58,21.71,21.71,0,0,1-10.61,2.67q-9.27,0-14.93-5.9t-5.73-17.1m7.68,0c0,5.67,1.25,9.9,3.7,12.7a11.55,11.55,0,0,0,9.28,4.23,11.83,11.83,0,0,0,9.21-4.23c2.46-2.84,3.65-7.12,3.65-12.95,0-5.49-1.19-9.61-3.68-12.41a12.21,12.21,0,0,0-18.46,0c-2.45,2.78-3.7,7-3.7,12.69"/><path class="cls-1" d="M2385.09,243.13v-5.55q-4.23,6.51-12.39,6.5a17.5,17.5,0,0,1-9.73-2.87,19.09,19.09,0,0,1-6.86-8.14,27.63,27.63,0,0,1-2.42-11.94,30.94,30.94,0,0,1,2.2-12,17.3,17.3,0,0,1,6.62-8.21,17.75,17.75,0,0,1,9.89-2.85,14.59,14.59,0,0,1,7.16,1.66,14.26,14.26,0,0,1,5.08,4.32V182.28h7.41v60.85Zm-23.76-22c0,5.67,1.18,9.92,3.59,12.71a10.69,10.69,0,0,0,16.86.17q3.45-4,3.44-12.23,0-9.12-3.53-13.33a10.67,10.67,0,0,0-8.64-4.23,10.32,10.32,0,0,0-8.34,4.06c-2.27,2.7-3.38,7-3.38,12.85"/><path class="cls-1" d="M2432.82,228.89l7.69,1a19,19,0,0,1-6.76,10.47c-3.28,2.49-7.51,3.7-12.6,3.7-6.41,0-11.51-2-15.28-5.94s-5.68-9.53-5.68-16.7c0-7.4,2-13.16,5.75-17.23s8.7-6.14,14.8-6.14a18.79,18.79,0,0,1,14.42,6c3.7,4,5.57,9.6,5.57,16.86,0,.43,0,1.1-.05,2h-32.76c.27,4.81,1.59,8.6,4.09,11.17a12.09,12.09,0,0,0,9.21,3.88,11.53,11.53,0,0,0,7-2.14,14.5,14.5,0,0,0,4.59-7m-24.53-12.11h24.6c-.32-3.67-1.26-6.43-2.79-8.3a11.4,11.4,0,0,0-9.25-4.31,11.73,11.73,0,0,0-8.66,3.47,13.84,13.84,0,0,0-3.9,9.14"/><path class="cls-1" d="M2448.88,243.13V199.06h6.68v6.63c1.71-3.12,3.33-5.16,4.72-6.15a8.24,8.24,0,0,1,4.76-1.47,14.26,14.26,0,0,1,7.57,2.41l-2.58,6.83a10.52,10.52,0,0,0-5.4-1.56,7.05,7.05,0,0,0-4.32,1.47,7.91,7.91,0,0,0-2.77,4.07,28.84,28.84,0,0,0-1.25,8.74v23.1Z"/><path class="cls-1" d="M2499.85,243.06V182.22h22.89a54.49,54.49,0,0,1,9.25.6,17.3,17.3,0,0,1,7.5,2.82,14.59,14.59,0,0,1,4.87,5.83,19.84,19.84,0,0,1-3.06,21.33c-3.29,3.59-9.25,5.38-17.8,5.38H2508v24.88Zm8.15-32h15.65c5.2,0,8.86-1,11-2.91s3.27-4.66,3.27-8.17a10.92,10.92,0,0,0-1.93-6.54,9.17,9.17,0,0,0-5.05-3.6,35.66,35.66,0,0,0-7.52-.54H2508Z"/><path class="cls-1" d="M2551.78,221q0-12.22,6.79-18.12a20.52,20.52,0,0,1,13.82-4.89c6.07,0,11,2,14.84,5.94s5.75,9.45,5.75,16.49c0,5.64-.82,10.1-2.53,13.34a18.1,18.1,0,0,1-7.42,7.59,22,22,0,0,1-10.64,2.67c-6.13,0-11.16-2-14.9-5.91s-5.71-9.67-5.71-17.11m7.64,0c0,5.67,1.24,9.9,3.75,12.7a11.46,11.46,0,0,0,9.22,4.24,11.83,11.83,0,0,0,9.25-4.24c2.45-2.84,3.7-7.13,3.7-12.95,0-5.48-1.25-9.6-3.7-12.41a11.77,11.77,0,0,0-9.25-4.23,11.64,11.64,0,0,0-9.22,4.21c-2.51,2.77-3.75,7-3.75,12.68"/><path class="cls-1" d="M2600.79,260V199h6.66v5.7a16.26,16.26,0,0,1,5.45-5,15.12,15.12,0,0,1,7.4-1.68,18,18,0,0,1,10.09,2.86,18.69,18.69,0,0,1,6.54,8.21,29.94,29.94,0,0,1,2.18,11.64,29.61,29.61,0,0,1-2.41,12.17A18.39,18.39,0,0,1,2619.8,244a14.26,14.26,0,0,1-6.73-1.55,15,15,0,0,1-4.91-3.95V260Zm6.52-38.68c0,5.68,1.17,9.91,3.51,12.59a10.65,10.65,0,0,0,8.41,4.08,10.87,10.87,0,0,0,8.65-4.23c2.39-2.81,3.62-7.14,3.62-13.07,0-5.61-1.21-9.84-3.55-12.62a10.7,10.7,0,0,0-8.37-4.19c-3.23,0-6.08,1.47-8.55,4.49s-3.72,7.28-3.72,13"/><path class="cls-1" d="M2676,243.06v-6.43a16.2,16.2,0,0,1-14,7.4,18,18,0,0,1-7.31-1.49,12.09,12.09,0,0,1-5.07-3.75,13.79,13.79,0,0,1-2.27-5.56,39.83,39.83,0,0,1-.48-7V199h7.44v24.44a39.84,39.84,0,0,0,.45,7.93,7.76,7.76,0,0,0,3,4.57,9.11,9.11,0,0,0,5.67,1.68,12.3,12.3,0,0,0,6.31-1.71,9.73,9.73,0,0,0,4.2-4.68,24,24,0,0,0,1.23-8.63V199h7.35v44.05Z"/><rect class="cls-1" x="2693.02" y="182.22" width="7.38" height="60.84"/><path class="cls-1" d="M2739.81,237.5a25.82,25.82,0,0,1-7.89,5.06,23.49,23.49,0,0,1-8.3,1.47c-4.84,0-8.57-1.14-11.22-3.54a11.74,11.74,0,0,1-3.88-9.05,12.34,12.34,0,0,1,5.34-10.27,18.45,18.45,0,0,1,5.41-2.41,51,51,0,0,1,6.69-1.14,66.72,66.72,0,0,0,13.38-2.59c0-1,0-1.68,0-1.94,0-3-.74-5.22-2.14-6.45-1.9-1.7-4.76-2.53-8.54-2.53-3.46,0-6.1.6-7.79,1.84s-2.93,3.43-3.73,6.56l-7.4-1a18,18,0,0,1,3.34-7.52,13.61,13.61,0,0,1,6.54-4.45,29.82,29.82,0,0,1,10-1.53,26.56,26.56,0,0,1,9.15,1.31,10.58,10.58,0,0,1,7.57,8.41,47.9,47.9,0,0,1,.33,6.84v10a119.68,119.68,0,0,0,.43,13.22,17.71,17.71,0,0,0,1.86,5.28h-7.69a15.23,15.23,0,0,1-1.54-5.56m-.44-16.61a55.69,55.69,0,0,1-12.29,2.82,29.7,29.7,0,0,0-6.62,1.51,6.83,6.83,0,0,0-2.94,2.43,6.4,6.4,0,0,0-1,3.59,6.28,6.28,0,0,0,2.29,4.95c1.48,1.38,3.73,2.05,6.6,2.05a15.93,15.93,0,0,0,7.77-1.9,12.1,12.1,0,0,0,5-5.16,18.67,18.67,0,0,0,1.22-7.56Z"/><path class="cls-1" d="M2757.25,243.06V199h6.69v6.62c1.7-3.11,3.3-5.17,4.71-6.15a8.32,8.32,0,0,1,4.76-1.48,14.13,14.13,0,0,1,7.59,2.42l-2.61,6.83a10.57,10.57,0,0,0-5.43-1.56,7,7,0,0,0-4.31,1.47,7.78,7.78,0,0,0-2.72,4.07,28.22,28.22,0,0,0-1.28,8.74v23.09Z"/><path class="cls-1" d="M1776.54,319v-5.56a13.72,13.72,0,0,1-12.3,6.53,17.13,17.13,0,0,1-9.61-2.88,19.11,19.11,0,0,1-6.85-8.12,28.07,28.07,0,0,1-2.41-11.89,30.84,30.84,0,0,1,2.21-11.9,16.85,16.85,0,0,1,6.56-8.19,17.39,17.39,0,0,1,9.8-2.85,14.38,14.38,0,0,1,7,1.7,14.56,14.56,0,0,1,5,4.31V258.45h7.41V319ZM1753,297.07c0,5.64,1.17,9.82,3.54,12.6a10.46,10.46,0,0,0,16.65.19c2.29-2.65,3.4-6.69,3.4-12.16,0-5.95-1.11-10.4-3.48-13.2a10.64,10.64,0,0,0-16.82-.19c-2.17,2.71-3.29,6.95-3.29,12.76"/><path class="cls-1" d="M1823.44,304.81l7.62,1a18.71,18.71,0,0,1-6.71,10.45c-3.26,2.44-7.47,3.71-12.54,3.71-6.42,0-11.5-2-15.28-5.94s-5.6-9.47-5.6-16.61c0-7.35,1.87-13.1,5.68-17.16s8.72-6.12,14.79-6.12a18.76,18.76,0,0,1,14.37,6q5.57,6,5.55,16.86c0,.43,0,1.08,0,1.95h-32.71c.26,4.82,1.66,8.51,4.07,11.09a12.32,12.32,0,0,0,9.21,3.88,11.23,11.23,0,0,0,6.94-2.2,14.42,14.42,0,0,0,4.63-6.88m-24.44-12h24.5c-.36-3.65-1.27-6.41-2.83-8.28a11.42,11.42,0,0,0-9.19-4.28,11.65,11.65,0,0,0-8.6,3.43,13.4,13.4,0,0,0-3.88,9.13"/><path class="cls-2" d="M1861.09,319V258.45h19.57c7.46,0,12.35.28,14.56.91a15.59,15.59,0,0,1,8.7,5.94c2.32,3,3.52,6.95,3.52,11.78a20,20,0,0,1-2,9.37,17.22,17.22,0,0,1-5.13,6,17.76,17.76,0,0,1-6.34,2.83,68,68,0,0,1-12.69.88h-8V319Zm12.23-50.3v17.17H1880c4.82,0,8-.33,9.67-1a8.06,8.06,0,0,0,5.2-7.66,8,8,0,0,0-1.95-5.44,8.57,8.57,0,0,0-4.89-2.69,60.9,60.9,0,0,0-8.81-.4Z"/><path class="cls-2" d="M1941.07,305l11.58,1.92a18.88,18.88,0,0,1-7,9.69,20.71,20.71,0,0,1-12,3.33c-7.66,0-13.27-2.5-16.93-7.48-2.89-4-4.33-9-4.33-15.1q0-10.9,5.68-17.08a18.79,18.79,0,0,1,14.4-6.17c6.55,0,11.69,2.13,15.46,6.44s5.58,10.92,5.43,19.82h-29.08c.06,3.44,1,6.1,2.82,8a8.59,8.59,0,0,0,6.67,2.91,7,7,0,0,0,4.59-1.5,9.09,9.09,0,0,0,2.78-4.78m.68-11.75a11.39,11.39,0,0,0-2.59-7.67,8.4,8.4,0,0,0-12.29.15,10.7,10.7,0,0,0-2.47,7.52Z"/><path class="cls-2" d="M1981.16,275.13v9.24h-8V302a44.19,44.19,0,0,0,.25,6.27,2.61,2.61,0,0,0,1,1.47,3.38,3.38,0,0,0,2,.6,14.69,14.69,0,0,0,4.67-1.13l1,8.95a22.68,22.68,0,0,1-9.18,1.79,14.11,14.11,0,0,1-5.66-1.06,8.5,8.5,0,0,1-3.7-2.72,10.77,10.77,0,0,1-1.65-4.53,62.81,62.81,0,0,1-.34-8.16V284.37h-5.33v-9.24h5.33v-8.7l11.6-6.78v15.48Z"/><path class="cls-2" d="M1998.59,319H1987V275.13h10.78v6.2c1.85-2.92,3.53-4.87,5-5.78a9.08,9.08,0,0,1,5-1.42,15.25,15.25,0,0,1,7.64,2.17l-3.58,10.15a10.18,10.18,0,0,0-5.46-1.91,6.35,6.35,0,0,0-4.12,1.33c-1.15.89-2,2.52-2.68,4.86s-1,7.21-1,14.69Z"/><path class="cls-2" d="M2016,296.43a23.83,23.83,0,0,1,2.87-11.23A19.6,19.6,0,0,1,2027,277a23.58,23.58,0,0,1,11.63-2.85c6.69,0,12.07,2.15,16.35,6.44a22.45,22.45,0,0,1,6.32,16.34,22.73,22.73,0,0,1-6.42,16.52,21.81,21.81,0,0,1-16.16,6.53,25.23,25.23,0,0,1-11.47-2.75,18.47,18.47,0,0,1-8.31-8,26.52,26.52,0,0,1-2.87-12.82m11.88.59q0,6.57,3.1,10a10.14,10.14,0,0,0,15.26,0c2.05-2.3,3.06-5.69,3.06-10.07s-1-7.59-3.06-9.91a10.18,10.18,0,0,0-15.26,0c-2.06,2.32-3.1,5.61-3.1,10m4.87-27.27,5.68-12.36h13l-11.36,12.36Z"/><rect class="cls-2" x="2068.67" y="258.45" width="11.61" height="60.55"/><path class="cls-2" d="M2115.86,305l11.52,1.92a18.77,18.77,0,0,1-7,9.69,20.69,20.69,0,0,1-12,3.33q-11.43,0-16.9-7.48c-2.94-4-4.37-9-4.37-15.1,0-7.27,1.87-13,5.7-17.08a18.73,18.73,0,0,1,14.42-6.17c6.49,0,11.67,2.13,15.44,6.44s5.56,10.92,5.37,19.82h-29c.12,3.44,1,6.1,2.8,8a8.66,8.66,0,0,0,6.67,2.91,6.93,6.93,0,0,0,4.59-1.5,9.41,9.41,0,0,0,2.84-4.78m.66-11.75c-.11-3.35-1-5.88-2.61-7.67a8,8,0,0,0-6-2.6,8.18,8.18,0,0,0-6.29,2.75,10.68,10.68,0,0,0-2.41,7.52Z"/><path class="cls-2" d="M2133.12,296.43A23.91,23.91,0,0,1,2136,285.2a19.94,19.94,0,0,1,8-8.22,24.07,24.07,0,0,1,11.68-2.85c6.65,0,12.1,2.13,16.31,6.44a22.36,22.36,0,0,1,6.35,16.34,22.79,22.79,0,0,1-6.4,16.52,21.86,21.86,0,0,1-16.17,6.53,25.34,25.34,0,0,1-11.47-2.75,18.72,18.72,0,0,1-8.33-8,26.63,26.63,0,0,1-2.84-12.82M2145,297c0,4.38,1.05,7.72,3.08,10a10.18,10.18,0,0,0,15.29,0c2-2.3,3.06-5.69,3.06-10.07s-1.06-7.59-3.06-9.91a10.18,10.18,0,0,0-15.29,0c-2,2.32-3.08,5.61-3.08,10"/></svg>