<?xml version="1.0" encoding="utf-8"?>
<!-- Generator: Adobe Illustrator 26.0.2, SVG Export Plug-In . SVG Version: 6.00 Build 0)  -->
<svg version="1.1" id="Layer_1" xmlns="http://www.w3.org/2000/svg" xmlns:xlink="http://www.w3.org/1999/xlink" x="0px" y="0px"
	 viewBox="0 0 3500 2437.9" style="enable-background:new 0 0 3500 2437.9;" xml:space="preserve">
<style type="text/css">
	.st0{fill:#FFFFFF;}
	
		.st1{clip-path:url(#SVGID_00000075126333936732220410000005863435151699870646_);fill:url(#SVGID_00000093172450144970192470000007963119995837907360_);}
	.st2{fill:#343061;}
	.st3{fill:#E20E17;}
	.st4{fill:#E5312F;}
	
		.st5{clip-path:url(#SVGID_00000143596395453225166890000011730246734345571250_);fill:url(#SVGID_00000111160892019648120340000013265493549601557945_);}
	
		.st6{clip-path:url(#SVGID_00000169533236695635473450000003057372150782126750_);fill:url(#SVGID_00000071539341900717361620000006880570749245207739_);}
	
		.st7{clip-path:url(#SVGID_00000146473370709711353780000005572757731688279228_);fill:url(#SVGID_00000037671429496413558890000014210159893084888202_);}
	
		.st8{clip-path:url(#SVGID_00000078758233933154572950000017053236442441631887_);fill:url(#SVGID_00000137851765248384647380000001950364857464332465_);}
	
		.st9{clip-path:url(#SVGID_00000096047302393419559970000012564316532396461953_);fill:url(#SVGID_00000177456467666491746370000002814752559185652637_);}
	
		.st10{clip-path:url(#SVGID_00000147178246162262166250000002354053751216236431_);fill:url(#SVGID_00000032630740291448760840000016808695095659092891_);}
	
		.st11{clip-path:url(#SVGID_00000095328752301071728920000005445077911991871671_);fill:url(#SVGID_00000121269098579692918870000006336801446092711310_);}
	.st12{filter:url(#Adobe_OpacityMaskFilter);}
	
		.st13{clip-path:url(#SVGID_00000173137327023898161700000012547925180428459699_);fill:url(#SVGID_00000055697653381991932030000017229049407985622403_);}
	
		.st14{clip-path:url(#SVGID_00000173137327023898161700000012547925180428459699_);mask:url(#SVGID_00000126295864255877586090000008285396448758924183_);fill:url(#SVGID_00000081622462613076413850000010725670823554463933_);}
	.st15{filter:url(#Adobe_OpacityMaskFilter_00000100366090896267214420000013391782904526318214_);}
	
		.st16{clip-path:url(#SVGID_00000080187472623060133800000012677494506260754360_);fill:url(#SVGID_00000065758330096324653580000010218971447417828520_);}
	
		.st17{clip-path:url(#SVGID_00000080187472623060133800000012677494506260754360_);mask:url(#SVGID_00000164510492663495420150000011922814411426048657_);fill:url(#SVGID_00000060716091560965879700000005682360420006159007_);}
	
		.st18{clip-path:url(#SVGID_00000048461015368192644120000006886406590550974359_);fill:url(#SVGID_00000122709171191626506770000002894569542920195765_);}
	
		.st19{clip-path:url(#SVGID_00000031200371805695834750000014640053241609282208_);fill:url(#SVGID_00000034774746489637826990000009090927985495594668_);}
	
		.st20{clip-path:url(#SVGID_00000022552982299260823030000016576110006319520655_);fill:url(#SVGID_00000048460041316560496950000002312206329790136507_);}
</style>
<g>
	<rect y="0" class="st0" width="3500" height="2437.9"/>
	<g>
		<g>
			<defs>
				<path id="SVGID_1_" d="M654.6,801.1c-68.1,75.5-102.3,160.9-102.3,256.1c0,32,2.3,55.4,6.9,70c11.8,34.8,49.8,52.1,113.9,52.1
					c57.7,0,93.4-11,107.1-32.9c7.3-12.9,11.6-24.3,13-34.3c1.4-10.1,2.1-25.2,2.1-45.4v-8.2l5.5-31.6c2.7-21,14.8-42.3,36.4-63.8
					c21.4-21.5,46.9-32.3,76.2-32.3c29.2,0,52.1,4.1,68.6,12.4c16.4,8.2,28.5,17.2,36.4,26.7c7.8,9.6,14.9,21.9,21.3,37
					c6.4,15.2,9.6,26.8,9.6,35.1c0,41.2-17.2,80.1-51.5,116.6c-34.3,36.6-75.7,69.4-124.2,98.2c-48.5,28.8-97,58.1-145.5,87.9
					c-48.6,29.7-89.9,65.4-124.2,107.1c-34.4,41.7-51.6,87.2-51.6,136.6c0,32.9,11.9,61.8,35.7,86.4c23.8,24.8,52.2,37.1,85.1,37.1
					h1036.9l-456.8-244.4H961.5v-6.9l34.3-13.7c53-21.1,113.5-61.8,181.2-122.3c32-28.3,59.5-65.9,82.4-112.5
					c22.9-46.7,34.3-96.1,34.3-148.3c0-97.9-34.3-185.1-103-261.5c-68.6-76.5-158.1-114.7-268.3-114.7
					C812,687.8,722.8,725.6,654.6,801.1"/>
			</defs>
			<clipPath id="SVGID_00000069381952784049541390000008934474054951235257_">
				<use xlink:href="#SVGID_1_"  style="overflow:visible;"/>
			</clipPath>
			
				<linearGradient id="SVGID_00000170267735001819057390000001581355802245386161_" gradientUnits="userSpaceOnUse" x1="1370.9187" y1="1814.3094" x2="1376.5677" y2="1814.3094" gradientTransform="matrix(65.9 -74.8435 -74.8435 -65.9 46314.582 223665.2969)">
				<stop  offset="0" style="stop-color:#FABD1E"/>
				<stop  offset="4.783200e-04" style="stop-color:#FABD1E"/>
				<stop  offset="1" style="stop-color:#F59A2C"/>
			</linearGradient>
			
				<polygon style="clip-path:url(#SVGID_00000069381952784049541390000008934474054951235257_);fill:url(#SVGID_00000170267735001819057390000001581355802245386161_);" points="
				44.3,1264.8 1057.9,113.6 2218.1,1135.1 1204.5,2286.3 			"/>
		</g>
		<g>
			<path class="st2" d="M2201.8,1199.9c0,3.1,0,6.3-0.1,9.4c-0.4,22.9-2.3,45.4-5.6,67.6c-10.4,68.5-34.3,132.6-69,189.5
				c-23.5,38.5-52,73.7-84.5,104.6c-53.4,50.7-117.7,90.1-189.1,114.2c-2.3,0.8-4.7,1.6-7,2.3c-49.4,15.9-102.1,24.4-156.7,24.4
				c-282.9,0-512.1-229.2-512.1-512c0-126.8,46-242.8,122.3-332.1c2.7-3.1,5.4-6.3,8.2-9.3c9.2-10.3,18.8-20.2,28.9-29.8
				c83.4-79.4,193.6-130.8,315.6-139.6c12.3-0.9,24.7-1.3,37.1-1.3c8.9,0,17.7,0.2,26.5,0.7c15,0.7,29.9,2.1,44.5,4.1
				c68.3,9.5,132.2,32.4,189.1,66c12.6,7.4,24.9,15.4,36.8,23.9c0.6,0.4,1.2,0.9,1.8,1.3c4.9,3.5,9.8,7.2,14.6,11
				c12.6,9.7,24.8,20.1,36.5,31.1c1.1,0.8,2.1,1.8,3.1,2.7c3.5,3.3,6.9,6.6,10.2,10c4.5,4.5,8.8,9,13,13.6
				c28,30.2,52.3,63.8,72.3,100.1c0.2,0.4,0.5,0.7,0.7,1.2c5.4,9.7,10.4,19.7,15.2,29.9c9.8,21.1,18.3,43.1,25.2,65.7
				c7.8,25.5,13.8,51.7,17.6,78.8c2.2,15.4,3.7,31.1,4.5,46.9C2201.6,1183.1,2201.8,1191.5,2201.8,1199.9"/>
			<path class="st3" d="M2645.7,1590.2l0.6,0.7c-0.2-0.1-0.4-0.2-0.7-0.5L2645.7,1590.2z"/>
			<path class="st4" d="M2907.5,1200c0,73-15.4,142.6-43,205.6c-14.3,32.5-28.2,66.5-52.5,92c-0.6-0.1-1.2-0.1-1.8-0.1l-111.9-0.3
				c-6.9,0-13-4.4-15.1-11l-35.2-106.1c-4.9-14.7-25.5-14.7-30.4,0l-34.7,106.3c-2.1,6.6-8.2,11.1-15.1,11.1h-1.1l-7.1,0.1
				l-103.7,0.5c-15.5,0.1-21.9,19.9-9.4,29l90.4,65.9c5.5,4.1,7.9,11.2,5.8,17.9l-27.8,87.1c-1.4,0.3-2.8,0.6-4.2,1
				c-9.2,2.1-18.6,4.1-28,5.7c-14.2,2.5-28.6,4.3-43.2,5.5c-14.5,1.2-29.3,1.9-44.1,1.9c-20.9,0-41.5-1.2-61.7-3.6
				c-3.3-0.4-6.7-0.8-10.1-1.3c-13.4-1.9-26.6-4.3-39.7-7.2c-6.6-1.5-13-3.1-19.4-4.7c-3.2-0.8-6.4-1.8-9.7-2.7
				c-57.4-16.3-110.7-42.5-157.9-76.5c-4.8-3.4-9.5-6.9-14.1-10.5c-13.9-10.8-27.3-22.3-40.2-34.5V828.7c0.5-0.5,1.1-1,1.6-1.5
				c85.1-80.3,197.8-131.7,322.3-138.6c9.6-0.6,19.2-0.8,28.9-0.8c11.7,0,23.4,0.3,35,1.2c18.8,1.2,37.2,3.5,55.3,6.7
				c64.2,11.5,124.3,34.8,177.8,67.8h0.1c27.1,16.7,52.5,35.8,75.9,57.1c99.7,90.7,163.7,220.1,167.8,364.7
				c0.1,3.6,0.1,7.1,0.1,10.7C2907.5,1197.3,2907.5,1198.7,2907.5,1200"/>
		</g>
		<g>
			<defs>
				<path id="SVGID_00000150094674110430154910000004148241107087738783_" d="M2366.5,688.6c-43.2,12.7-74.6,52.6-74.6,99.9
					c0,9,1.1,17.7,3.3,26.2c3.7,14.1,10.1,27,18.9,38.1c5.1,6.6,11.1,12.5,17.6,17.6c17.7,14,40.1,22.3,64.4,22.3
					c7.4,0,14.7,0.2,22,0.8c3.7,0.2,7.4,0.6,11.1,1c21.9,2.3,43,7.1,63.3,13.9c120,40.4,206.8,154,206.8,287.5
					c0,57.5,46.6,104.1,104.2,104.1c57.5,0,104.1-46.5,104.1-104.1c0-3.6-0.1-7.2-0.1-10.7c-4.1-144.5-68.1-274-167.8-364.7
					c-23.4-21.2-48.9-40.3-75.9-57.1h-0.1c-53.6-33-113.6-56.3-177.8-67.8c-18.1-3.2-36.6-5.5-55.3-6.7c-11.6-0.9-23.3-1.2-35-1.2
					C2385.7,687.8,2376.1,688.1,2366.5,688.6"/>
			</defs>
			<clipPath id="SVGID_00000101088075144814769420000016548933711444725917_">
				<use xlink:href="#SVGID_00000150094674110430154910000004148241107087738783_"  style="overflow:visible;"/>
			</clipPath>
			
				<linearGradient id="SVGID_00000152258482240340796490000004147657002551313557_" gradientUnits="userSpaceOnUse" x1="1379.4576" y1="1813.2202" x2="1385.1068" y2="1813.2202" gradientTransform="matrix(108.97 0 0 -108.97 -148027.5938 198580.4844)">
				<stop  offset="0" style="stop-color:#ED7258"/>
				<stop  offset="0.9995" style="stop-color:#E5312F"/>
				<stop  offset="1" style="stop-color:#E5312F"/>
			</linearGradient>
			
				<rect x="2291.9" y="687.8" style="clip-path:url(#SVGID_00000101088075144814769420000016548933711444725917_);fill:url(#SVGID_00000152258482240340796490000004147657002551313557_);" width="615.6" height="612.3"/>
		</g>
		<g>
			<defs>
				<path id="SVGID_00000148619617335598457620000011540689014720185248_" d="M1177.1,1200.4c0,282.1,229.4,511.6,511.4,511.6
					c57.6,0,104.2-46.7,104.2-104.2c0-9-1.1-17.8-3.3-26.2c-3.7-14.1-10.1-27-18.9-38.1c-5.1-6.5-11.1-12.5-17.6-17.6
					c-17.7-14-40.1-22.3-64.4-22.3c-7.4,0-14.8-0.2-22-0.8c-3.8-0.2-7.4-0.6-11.1-1c-21.9-2.3-43-7-63.3-13.9
					c-120.1-40.4-206.8-154-206.8-287.5c0-57.5-46.6-104.1-104.2-104.1C1223.7,1096.3,1177.1,1142.9,1177.1,1200.4"/>
			</defs>
			<clipPath id="SVGID_00000179611939399436992850000008860611293649316285_">
				<use xlink:href="#SVGID_00000148619617335598457620000011540689014720185248_"  style="overflow:visible;"/>
			</clipPath>
			
				<linearGradient id="SVGID_00000159462871201609737510000017730231697153923759_" gradientUnits="userSpaceOnUse" x1="1371.0389" y1="1810.1218" x2="1376.6881" y2="1810.1218" gradientTransform="matrix(108.977 0 0 -108.977 -148234.5781 198665.8125)">
				<stop  offset="0" style="stop-color:#38BCEE"/>
				<stop  offset="1" style="stop-color:#258FCF"/>
			</linearGradient>
			
				<rect x="1177.1" y="1096.3" style="clip-path:url(#SVGID_00000179611939399436992850000008860611293649316285_);fill:url(#SVGID_00000159462871201609737510000017730231697153923759_);" width="615.6" height="615.7"/>
		</g>
		<g>
			<path class="st2" d="M585.3,1994h17c3.8,0,6.7,0.6,8.5,1.8c3.1,1.8,4.6,6.8,4.6,14.9c0,7.8-1.4,12.6-4.1,14.2
				c-2.3,1.4-5.4,2.1-9.2,2.1h-35.4c-8.9,0-14.3-2-16.3-6c-1.5-3.2-2.3-7.9-2.3-14v-189.6c0-6,0.6-10.3,1.9-13
				c1.3-2.7,3.3-4.5,6.1-5.4c2.8-0.9,6.3-1.4,10.8-1.4h35.3c3.8,0,6.7,0.5,8.5,1.6c3.1,2,4.6,7,4.6,15.2c0,7.8-1.4,12.6-4.1,14.2
				c-2.3,1.4-5.4,2.1-9.2,2.1h-16.8V1994z"/>
			<path class="st2" d="M2876.6,1830.2h-17c-3.8,0-6.7-0.6-8.5-1.8c-3.1-1.8-4.6-6.8-4.6-14.9c0-7.8,1.4-12.6,4.1-14.2
				c2.3-1.4,5.4-2.1,9.2-2.1h35.4c8.9,0,14.3,2,16.3,6c1.5,3.2,2.3,7.9,2.3,14v189.6c0,6-0.6,10.3-1.9,13c-1.3,2.7-3.3,4.5-6.1,5.4
				c-2.8,0.9-6.3,1.4-10.8,1.4h-35.3c-3.8,0-6.7-0.5-8.5-1.6c-3.1-2-4.6-7-4.6-15.2c0-7.8,1.4-12.6,4.1-14.2
				c2.3-1.4,5.4-2.1,9.2-2.1h16.8V1830.2z"/>
			<path class="st2" d="M1725.1,1928.9h-50.5c-7.9,0-12.7-2.4-14.2-7.2c-0.7-2.5-1.1-5.8-1.1-9.8c0-4,0.4-7.1,1.3-9.6
				c0.8-2.4,2.2-4.1,4-5.1c2.5-1.3,5.9-1.9,10.2-1.9h50.5c7.9,0,12.6,2.3,14,7c0.8,2.6,1.3,5.8,1.3,9.8c0,4-0.4,7.2-1.2,9.7
				c-0.8,2.5-2,4.2-3.7,5.2C1733.2,1928.3,1729.6,1928.9,1725.1,1928.9"/>
			<path class="st2" d="M2070.5,1953.9c5.8,0,9.9,0.7,12.4,2c2.5,1.3,4.1,3.4,5,6.2c0.9,2.8,1.3,6.4,1.3,10.8c0,4.5-0.5,8-1.4,10.7
				c-0.9,2.7-2.4,4.5-4.6,5.5c-3.1,1.7-7.5,2.5-13.2,2.5h-83c-5.1,0-9.5-1.9-13.2-5.7c-3.7-3.8-5.5-8.3-5.5-13.4
				c0-7.6,2.6-14.7,8-21.1c5.3-6.4,11.7-12,19.2-16.6c7.5-4.6,15-9.1,22.5-13.6c7.5-4.5,13.9-9.5,19.2-15.2c5.3-5.7,8-11.7,8-18
				c0-1.3-0.5-3.1-1.5-5.4c-1-2.3-2.1-4.2-3.3-5.7c-1.2-1.5-3.1-2.9-5.6-4.1c-2.5-1.3-6.1-1.9-10.6-1.9c-4.5,0-8.5,1.7-11.8,5
				c-3.3,3.3-5.2,6.6-5.6,9.9l-0.8,4.9v1.3c0,3.1-0.1,5.4-0.3,7c-0.2,1.6-0.9,3.3-2,5.3c-2.1,3.4-7.6,5.1-16.6,5.1
				c-9.9,0-15.8-2.7-17.6-8.1c-0.7-2.3-1.1-5.9-1.1-10.8c0-14.7,5.3-27.9,15.8-39.6c10.5-11.7,24.3-17.5,41.4-17.5
				c17.1,0,30.9,5.9,41.5,17.7c10.6,11.8,15.9,25.3,15.9,40.4c0,8.1-1.8,15.7-5.3,22.9c-3.5,7.2-7.8,13-12.7,17.4
				c-10.5,9.3-19.8,15.6-28,18.9l-5.3,2.1v1.1H2070.5z"/>
			<path class="st2" d="M2219.9,1853.6c4.1-5.7,9.9-10.5,17.3-14.4c7.4-3.9,16-5.8,25.8-5.8c9.8,0,18.3,1.9,25.6,5.7
				c7.3,3.8,13,8.6,17.2,14.2c4.2,5.7,7.5,12.3,10.1,20c4.2,12.7,6.4,26.3,6.4,40.5c0,25.6-5.5,45.9-16.6,60.9
				c-4.1,5.7-9.8,10.3-17.1,14c-7.3,3.7-15.7,5.5-25.4,5.5c-9.6,0-18.1-1.9-25.6-5.6c-7.4-3.8-13.2-8.4-17.4-13.9
				c-4.2-5.5-7.6-12.1-10.3-19.7c-4.1-12.2-6.2-26-6.2-41.4c0-14.2,1.7-26.3,5-36.3C2212.1,1867.2,2215.8,1859.3,2219.9,1853.6
				 M2262.8,1956.4c14.6,0,21.9-13.9,21.9-41.6v-1.3c0-28.4-7.2-42.7-21.6-42.7c-14.4,0-21.7,14.3-21.7,42.8
				C2241.3,1942.2,2248.5,1956.4,2262.8,1956.4"/>
			<path class="st2" d="M2539,1848.2c10,9.9,15.1,21,15.1,33.4c0,12.4-5.5,21.3-16.6,26.9v1.5c1.4,0.7,3.5,2.2,6.3,4.6
				c2.8,2.3,5,4.6,6.7,6.9c4.7,5.9,7,12.7,7,20.4c0,15.1-5.7,27.6-17,37.5c-11.3,9.8-25.5,14.8-42.7,14.8c-17,0-31.1-5-42.5-14.9
				c-4.2-3.8-8-8.8-11.3-15.1c-1.1-2.3-1.9-4.1-2.3-5.5l-0.4-2.1c-1.6-4.7-2.3-8.5-2.3-11.5c0-8.2,6.9-12.3,20.8-12.3
				c5.7,0,9.4,0.7,11.3,2.1c2.4,1.8,4.5,5.5,6.4,11c1.4,4.5,5.3,7.9,11.7,10.2c2.7,0.8,5.7,1.3,8.9,1.3c7.5,0,13-1.5,16.6-4.6
				c3.5-3,5.3-6.5,5.3-10.3c0-3.8-1.7-7.2-5.2-10.1c-3.5-2.9-7.6-4.3-12.3-4.3c-4.7,0-8-0.1-9.7-0.4c-1.7-0.3-3.5-1-5.5-2.1
				c-3.8-1.8-5.7-7.3-5.7-16.3c0-9.9,2.6-15.8,7.9-17.6c2.4-0.7,6.1-1.1,11-1.1c10.8,0,16.1-2.8,16.1-8.3c0-3-1.4-5.8-4.2-8.5
				c-2.8-2.7-6.8-4-11.8-4c-5,0-9,0.9-12,2.5c-3,1.7-4.8,3.4-5.5,5.1l-1.3,2.5c-3.3,7.1-7.9,10.6-14,10.6c-3.5,0-7.4-1.3-11.7-3.8
				c-7.1-4.1-10.6-8.8-10.6-14.2c0-2.3,1.6-7.1,4.9-14.4c0.6-1.3,2.1-3.5,4.7-6.7c2.5-3.2,5.5-6,8.8-8.4c3.3-2.4,8-4.6,14-6.6
				c6-2,12.7-3,20.1-3C2515.2,1833.3,2528.9,1838.3,2539,1848.2"/>
			<path class="st2" d="M2690.3,1853.6c4.1-5.7,9.9-10.5,17.3-14.4c7.4-3.9,16-5.8,25.8-5.8s18.3,1.9,25.6,5.7
				c7.3,3.8,13,8.6,17.2,14.2c4.2,5.7,7.5,12.3,10.1,20c4.2,12.7,6.4,26.3,6.4,40.5c0,25.6-5.5,45.9-16.6,60.9
				c-4.1,5.7-9.8,10.3-17.1,14c-7.3,3.7-15.7,5.5-25.4,5.5c-9.6,0-18.1-1.9-25.6-5.6c-7.4-3.8-13.2-8.4-17.4-13.9
				c-4.2-5.5-7.6-12.1-10.3-19.7c-4.1-12.2-6.2-26-6.2-41.4c0-14.2,1.7-26.3,5-36.3C2682.5,1867.2,2686.2,1859.3,2690.3,1853.6
				 M2733.2,1956.4c14.6,0,21.9-13.9,21.9-41.6v-1.3c0-28.4-7.2-42.7-21.6-42.7c-14.4,0-21.7,14.3-21.7,42.8
				C2711.7,1942.2,2718.9,1956.4,2733.2,1956.4"/>
		</g>
		<g>
			<defs>
				<path id="SVGID_00000142169466029486649760000011333010077369857970_" d="M2645.6,1590.4c0.2,0.2,0.5,0.4,0.7,0.5l-0.6-0.7
					L2645.6,1590.4z"/>
			</defs>
			<clipPath id="SVGID_00000016753654935076651810000008234037428673648294_">
				<use xlink:href="#SVGID_00000142169466029486649760000011333010077369857970_"  style="overflow:visible;"/>
			</clipPath>
			
				<linearGradient id="SVGID_00000102515633864762701650000004348698243853545601_" gradientUnits="userSpaceOnUse" x1="8274.6162" y1="1764.5865" x2="8280.2656" y2="1764.5865" gradientTransform="matrix(0.1168 0 0 -0.1168 1679.4969 1796.5546)">
				<stop  offset="0" style="stop-color:#FABD1E"/>
				<stop  offset="4.783200e-04" style="stop-color:#FABD1E"/>
				<stop  offset="1" style="stop-color:#E95A2B"/>
			</linearGradient>
			
				<rect x="2645.6" y="1590.2" style="clip-path:url(#SVGID_00000016753654935076651810000008234037428673648294_);fill:url(#SVGID_00000102515633864762701650000004348698243853545601_);" width="0.7" height="0.7"/>
		</g>
		<g>
			<defs>
				<path id="SVGID_00000015331524820813013920000015642803306849920424_" d="M2492.4,1320.5l-47.8,63.4l33.2,33.9l81.8,79.8
					l7.1-0.1c-39.8-71.7-59.6-180.3,46.1-311.2L2492.4,1320.5z"/>
			</defs>
			<clipPath id="SVGID_00000106856924147958762100000015166172635920407229_">
				<use xlink:href="#SVGID_00000015331524820813013920000015642803306849920424_"  style="overflow:visible;"/>
			</clipPath>
			
				<linearGradient id="SVGID_00000040552945439346501340000010642922264119568279_" gradientUnits="userSpaceOnUse" x1="1396.2388" y1="1815.4597" x2="1401.8881" y2="1815.4597" gradientTransform="matrix(29.7744 0 0 -29.7744 -39127.4844 55396.125)">
				<stop  offset="0" style="stop-color:#FABD1E"/>
				<stop  offset="4.783200e-04" style="stop-color:#FABD1E"/>
				<stop  offset="1" style="stop-color:#F59A2C"/>
			</linearGradient>
			
				<rect x="2444.7" y="1186.3" style="clip-path:url(#SVGID_00000106856924147958762100000015166172635920407229_);fill:url(#SVGID_00000040552945439346501340000010642922264119568279_);" width="168.2" height="311.2"/>
		</g>
		<g>
			<defs>
				<path id="SVGID_00000094606754592645847880000007522295055316024502_" d="M3052,410.4l-33.7,8.2l-271.6,298.8l-48.5-2.5
					c0,0-10.9,12.5-12.5,15.5c-1.5,2.9-12,19.7-12,19.7l-12,16.1l-2.1,17.1l19,13.4c0,0,1.1,6.5,1.6,13.4
					c0.5,6.9,11.7,29.7,11.7,29.7l-13.4,38.7l-50.9,27.6l-12,56.2l29.8-7.7c-7.7,25.6-21.3,48.9-39.8,68.1l-24,25.1l-27.6,20.8
					l-3.1-7.1c-4.5-10.5-15.3-16.7-26.6-15.2l-53.7,7.2c-10.3,1.3-19.6,7-25.6,15.7l-11,9.4c-5.6-7.3-8.9-10.6-10.9-11.8
					c0.9-1.3,1.6-3.2,1.2-5.7c-1.1-5.7-9.2-31.6-12.4-35.1c-2.2-2.4-4.8-3.9-6.1-4.5c1.8,0.3,6.3,0.9,10.3-2.1
					c5.4-3.9,9.2-11.9,9.9-19.1c0.7-7.1,13.1-29.3,11-46.2c-2.1-17-2.8-24.7-2.8-24.7s0.9-28-13.1-31.8
					c-14.1-3.9-15.5-11.3-33.5-15.2c-8.2-1.8-13.9-1.6-18.9-1.5c-5.9,0.2-10.7,0.3-17.1-2.8c0,0-8.2-2.6-14.8,0.7l-22.9,5.2l3,23.3
					c-35.5,9.1-39.2,49.5-37.4,55.6c1.9,6.1,2.4,9.3-1,15.9c-3.5,6.6-8.5,17.5-13,28.3c-4.5,10.9,12.5,7.4,12.5,7.4l4.5,34.4
					c-0.2,13.8,9.2,12,9.2,12h25.2l-22.4,24.8v47.9l-62.6,45.9l-51.7,51.1l216.6,216.6l95.7-126.8l158.1-176.3
					c15.8-17.6,28.7-37.4,38.5-58.8l11-24.1c14.5-31.8,23.2-66.1,25.4-101l3.4-53l3.3-52.2l5.2-26.6l18.2-66.2l-1-1.9L3059,422.1
					c4.3-4.7,0.6-11.9-5.2-11.9C3053.2,410.2,3052.6,410.3,3052,410.4"/>
			</defs>
			<clipPath id="SVGID_00000013170496640555071750000009340744794647694749_">
				<use xlink:href="#SVGID_00000094606754592645847880000007522295055316024502_"  style="overflow:visible;"/>
			</clipPath>
			
				<linearGradient id="SVGID_00000016040085087390690050000016096970993981653173_" gradientUnits="userSpaceOnUse" x1="1351.9158" y1="1838.1925" x2="1357.5648" y2="1838.1925" gradientTransform="matrix(-4.3807 22.3904 22.3904 4.3807 -32651.0566 -37203.3711)">
				<stop  offset="0" style="stop-color:#FABD1E"/>
				<stop  offset="4.783200e-04" style="stop-color:#FABD1E"/>
				<stop  offset="1" style="stop-color:#F59A2C"/>
			</linearGradient>
			
				<polygon style="clip-path:url(#SVGID_00000013170496640555071750000009340744794647694749_);fill:url(#SVGID_00000016040085087390690050000016096970993981653173_);" points="
				3258.7,448.4 3030.7,1613.7 1984.7,1409.1 2212.7,243.8 			"/>
		</g>
		<g>
			<defs>
				<path id="SVGID_00000154399002018608449180000010865106597697227941_" d="M1587.7,1197.4l-80.2,31.6l86.7,86.7l64.2-70.6h42.5
					c27.7,0,53.2,15.3,66.2,39.9l50.4,94c0,0,90.4,0,95.3-90.3l-86.5-84.7c-4.2-4.2-9.9-6.6-15.9-6.6H1587.7z"/>
			</defs>
			<clipPath id="SVGID_00000099662808375108396940000016421728930799070602_">
				<use xlink:href="#SVGID_00000154399002018608449180000010865106597697227941_"  style="overflow:visible;"/>
			</clipPath>
			
				<linearGradient id="SVGID_00000167381757183986243560000000982812767566815105_" gradientUnits="userSpaceOnUse" x1="1366.2462" y1="1817.0986" x2="1371.8954" y2="1817.0986" gradientTransform="matrix(11.5422 16.3367 16.3367 -11.5422 -43738.7891 -49.8739)">
				<stop  offset="0" style="stop-color:#FABD1E"/>
				<stop  offset="4.783200e-04" style="stop-color:#FABD1E"/>
				<stop  offset="1" style="stop-color:#E95A2B"/>
			</linearGradient>
			
				<polygon style="clip-path:url(#SVGID_00000099662808375108396940000016421728930799070602_);fill:url(#SVGID_00000167381757183986243560000000982812767566815105_);" points="
				1777.8,1006.4 1998.2,1318.5 1642.4,1569.9 1421.9,1257.8 			"/>
		</g>
		<g>
			<defs>
				<path id="SVGID_00000029008987524624289670000004999149599159406472_" d="M2033.4,926.5l-11,21.1l-2.9-2.9l-22.9,29.6l-64,82.6
					l-23.3,30.1v133.1c0,19.1-4.4,37.2-12.2,53.3c-2,4.1-4.2,8.2-6.6,12.1c-19.9,31.5-53.5,53.4-92.6,56.9h-0.1
					c-3.7,0.4-7.6,0.6-11.4,0.6h-194.2v176.7l61.9,62h135.4c-3.7-14.1-10.1-27.1-18.9-38.1l-17.7-17.7
					c-17.7-13.9-40.1-22.3-64.4-22.3c-7.4,0-14.8-0.3-22-0.8h-11.1v-33.2c0-18.2,18.9-30.5,35.6-23.1l155.4,68.3v172.7
					c2.4-0.7,4.8-1.5,7.1-2.3c71.4-24,135.7-63.4,189-114.2h0.1c12.8,12.2,26.2,23.7,40.2,34.5c4.6,3.5,9.3,7.1,14.1,10.6
					c47.3,34,100.6,60.1,158,76.4c3.2,0.9,6.4,1.8,9.7,2.6c6.4,1.6,12.9,3.2,19.4,4.7c13.1,2.9,26.3,5.4,39.8,7.2
					c3.3,0.5,6.7,0.9,10.1,1.3c20.2,2.5,40.8,3.7,61.7,3.7c14.8,0,29.6-0.7,44.1-2c14.6-1.2,29-3,43.1-5.5c10.9-1.7,21.6-4,32.3-6.5
					v-0.2l27.8-87.1c2.1-6.6-0.2-13.8-5.8-17.8l-90.4-65.9c-12.5-9.1-6.1-28.9,9.4-29l103.7-0.5l-81.8-79.8l-5.4-5.3l-27.7-28.6
					l-0.1-0.1l-4.6-4.9l-166.2-171.7l-17.2-17.7c0-0.1,0-0.1-0.1-0.2c-1.2-8.2-2.8-16.3-4.9-24.3c-10.1-40.7-30.9-78.3-63-107.5
					l-146-133.9l-2.6-2.4l-0.3-0.3l-2.4-2.1L2033.4,926.5z"/>
			</defs>
			<clipPath id="SVGID_00000047033127131679822950000006086719784779864985_">
				<use xlink:href="#SVGID_00000029008987524624289670000004999149599159406472_"  style="overflow:visible;"/>
			</clipPath>
			
				<linearGradient id="SVGID_00000160869890234563929010000005289519643358251393_" gradientUnits="userSpaceOnUse" x1="1371.7762" y1="1814.2471" x2="1377.4254" y2="1814.2471" gradientTransform="matrix(16.5494 68.6314 68.6314 -16.5494 -145161.3125 -62892.832)">
				<stop  offset="0" style="stop-color:#FABD1E"/>
				<stop  offset="4.783200e-04" style="stop-color:#FABD1E"/>
				<stop  offset="1" style="stop-color:#F59A2C"/>
			</linearGradient>
			
				<polygon style="clip-path:url(#SVGID_00000047033127131679822950000006086719784779864985_);fill:url(#SVGID_00000160869890234563929010000005289519643358251393_);" points="
				2506.5,698.4 2740.4,1668.4 1645.4,1932.5 1411.4,962.5 			"/>
		</g>
		<g>
			<defs>
				<path id="SVGID_00000093166925006355602990000002913885340911491975_" d="M1909.3,1087v133.2l97.4,46.5
					c97.4,46.5,129.7-164.8,129.7-164.8l-139.9-127.4L1909.3,1087z"/>
			</defs>
			<clipPath id="SVGID_00000115515985198646636010000007752370729102955924_">
				<use xlink:href="#SVGID_00000093166925006355602990000002913885340911491975_"  style="overflow:visible;"/>
			</clipPath>
			<defs>
				<filter id="Adobe_OpacityMaskFilter" filterUnits="userSpaceOnUse" x="1751.3" y="868.4" width="543.2" height="550.6">
					<feColorMatrix  type="matrix" values="1 0 0 0 0  0 1 0 0 0  0 0 1 0 0  0 0 0 1 0"/>
				</filter>
			</defs>
			
				<mask maskUnits="userSpaceOnUse" x="1751.3" y="868.4" width="543.2" height="550.6" id="SVGID_00000111876677792784353710000000353964464191461550_">
				<g class="st12">
					
						<radialGradient id="SVGID_00000119100420295323702970000008474917490287985598_" cx="1364.7092" cy="1828.7014" r="5.6491" gradientTransform="matrix(12.2032 17.7742 17.7742 -12.2032 -47208.7656 -868.5947)" gradientUnits="userSpaceOnUse">
						<stop  offset="0" style="stop-color:#FFFFFF"/>
						<stop  offset="1" style="stop-color:#000000"/>
					</radialGradient>
					
						<polygon style="clip-path:url(#SVGID_00000115515985198646636010000007752370729102955924_);fill:url(#SVGID_00000119100420295323702970000008474917490287985598_);" points="
						2063.6,868.4 2294.4,1204.6 1982.1,1419 1751.3,1082.9 					"/>
				</g>
			</mask>
			
				<radialGradient id="SVGID_00000021111355597124440520000009084718576753569179_" cx="1364.7092" cy="1828.7014" r="5.6491" gradientTransform="matrix(12.2032 17.7742 17.7742 -12.2032 -47208.7578 -868.5955)" gradientUnits="userSpaceOnUse">
				<stop  offset="0" style="stop-color:#E95A2B"/>
				<stop  offset="1" style="stop-color:#FBB825"/>
			</radialGradient>
			
				<polygon style="clip-path:url(#SVGID_00000115515985198646636010000007752370729102955924_);mask:url(#SVGID_00000111876677792784353710000000353964464191461550_);fill:url(#SVGID_00000021111355597124440520000009084718576753569179_);" points="
				2063.6,868.4 2294.4,1204.6 1982.1,1419 1751.3,1082.9 			"/>
		</g>
		<g>
			<defs>
				<polygon id="SVGID_00000009592137615269189220000016407424575260699009_" points="2033.4,926.5 1996.5,974.4 2136.4,1101.8 
					2188.6,1057.6 2040,921.4 				"/>
			</defs>
			<clipPath id="SVGID_00000019658503414145836510000002333913128234472602_">
				<use xlink:href="#SVGID_00000009592137615269189220000016407424575260699009_"  style="overflow:visible;"/>
			</clipPath>
			<defs>
				
					<filter id="Adobe_OpacityMaskFilter_00000142895690904095892980000015489482937748402077_" filterUnits="userSpaceOnUse" x="1906.3" y="825.3" width="372.4" height="372.4">
					<feColorMatrix  type="matrix" values="1 0 0 0 0  0 1 0 0 0  0 0 1 0 0  0 0 0 1 0"/>
				</filter>
			</defs>
			
				<mask maskUnits="userSpaceOnUse" x="1906.3" y="825.3" width="372.4" height="372.4" id="SVGID_00000088836920816199536820000007049085443095399317_">
				<g style="filter:url(#Adobe_OpacityMaskFilter_00000142895690904095892980000015489482937748402077_);">
					
						<linearGradient id="SVGID_00000044175939063038484550000000775857939795564190_" gradientUnits="userSpaceOnUse" x1="1367.0321" y1="1838.4615" x2="1372.6813" y2="1838.4615" gradientTransform="matrix(14.0548 13.6898 13.6898 -14.0548 -42352.8359 8074.3037)">
						<stop  offset="0" style="stop-color:#FFFFFF"/>
						<stop  offset="1" style="stop-color:#000000"/>
					</linearGradient>
					
						<polygon style="clip-path:url(#SVGID_00000019658503414145836510000002333913128234472602_);fill:url(#SVGID_00000044175939063038484550000000775857939795564190_);" points="
						2090,825.3 2278.8,1009.2 2095.1,1197.8 1906.3,1013.9 					"/>
				</g>
			</mask>
			
				<linearGradient id="SVGID_00000072967318023688938530000004809324126251113111_" gradientUnits="userSpaceOnUse" x1="1367.0321" y1="1838.4615" x2="1372.6813" y2="1838.4615" gradientTransform="matrix(14.0548 13.6898 13.6898 -14.0548 -42352.8359 8074.3037)">
				<stop  offset="0" style="stop-color:#E95A2B"/>
				<stop  offset="1" style="stop-color:#FBB825"/>
			</linearGradient>
			
				<polygon style="clip-path:url(#SVGID_00000019658503414145836510000002333913128234472602_);mask:url(#SVGID_00000088836920816199536820000007049085443095399317_);fill:url(#SVGID_00000072967318023688938530000004809324126251113111_);" points="
				2090,825.3 2278.8,1009.2 2095.1,1197.8 1906.3,1013.9 			"/>
		</g>
		<g>
			<defs>
				<path id="SVGID_00000154407020273716197680000011584110778462444169_" d="M1768.2,1124.4l25.9,23.6c19.1,17.4,48.7,16,66-3.1
					l27.7-30.4c12.3-13.5,31.4-18.6,48.6-12.6c25.7,9,55.5,2.4,75-19c26.1-28.6,24-73-4.7-99.1l39.4-74.9
					c21.6-24.8,20.8-57.9-3.5-80L1768.2,1124.4z"/>
			</defs>
			<clipPath id="SVGID_00000057836171535575489740000015831235955674817171_">
				<use xlink:href="#SVGID_00000154407020273716197680000011584110778462444169_"  style="overflow:visible;"/>
			</clipPath>
			
				<linearGradient id="SVGID_00000098202467956039324290000014694858145681351100_" gradientUnits="userSpaceOnUse" x1="1373.2972" y1="1812.9585" x2="1378.9464" y2="1812.9585" gradientTransform="matrix(35.7758 83.3576 83.3576 -35.7758 -198225.5 -48358.5898)">
				<stop  offset="0" style="stop-color:#FABD1E"/>
				<stop  offset="4.783200e-04" style="stop-color:#FABD1E"/>
				<stop  offset="1" style="stop-color:#E95A2B"/>
			</linearGradient>
			
				<polygon style="clip-path:url(#SVGID_00000057836171535575489740000015831235955674817171_);fill:url(#SVGID_00000098202467956039324290000014694858145681351100_);" points="
				2021.1,720.2 2189.6,1113 1814.7,1273.9 1646.2,881.1 			"/>
		</g>
		<g>
			<path class="st4" d="M2734,1708.9l-87.3-62.9c28.3-15.8,54.9-34.4,79.5-55.2l32.3,100.1C2763.3,1705.7,2746.6,1717.9,2734,1708.9
				"/>
		</g>
		<g>
			<defs>
				<path id="SVGID_00000137810565189526017810000014234145983355153058_" d="M1101.5,1386.2c24.1-17.4,49.2-37.8,75.5-61.3
					c32.1-28.4,59.5-65.9,82.4-112.6c22.9-46.7,34.3-96,34.3-148.2c0-98-34.3-185.2-103-261.6c-26.6-29.6-56.3-53.5-89.2-71.6
					V1386.2z"/>
			</defs>
			<clipPath id="SVGID_00000148629758714777953120000011529249620833799570_">
				<use xlink:href="#SVGID_00000137810565189526017810000014234145983355153058_"  style="overflow:visible;"/>
			</clipPath>
			
				<linearGradient id="SVGID_00000018208039090077048350000013570725845208385691_" gradientUnits="userSpaceOnUse" x1="1370.9188" y1="1814.4233" x2="1376.5679" y2="1814.4233" gradientTransform="matrix(65.9012 -74.8449 -74.8449 -65.9012 46291.1875 223648.0938)">
				<stop  offset="0" style="stop-color:#FABD1E"/>
				<stop  offset="4.783200e-04" style="stop-color:#FABD1E"/>
				<stop  offset="1" style="stop-color:#F59A2C"/>
			</linearGradient>
			
				<polygon style="clip-path:url(#SVGID_00000148629758714777953120000011529249620833799570_);fill:url(#SVGID_00000018208039090077048350000013570725845208385691_);" points="
				776.5,1100 1185.4,635.5 1618.7,1017 1209.8,1481.5 			"/>
		</g>
		<g>
			<defs>
				<path id="SVGID_00000181088209097412364870000001187734295764345273_" d="M1520,578.1l-51.6,87.4c-2.9,4.9-8.6,7.3-14.1,6
					l-98.8-22.8c-11.1-2.5-19.8,9.2-14.3,19.1l49.8,88.3c2.8,4.9,2.1,11.1-1.8,15.3l-65.7,70.7c-5.2,5.4-10.3,10.8-15.3,16.4
					c-2.7,3.1-5.4,6.2-8.2,9.3h64.7l66.3,0.7c5.7,0,10.6,3.8,12.3,9.2l29.7,97c3.4,10.8,17.9,12.5,23.7,2.8l51.6-87.4
					c2.9-4.9,8.6-7.3,14.1-6.1l98.8,22.8c11.1,2.6,19.8-9.2,14.3-19.1l-49.9-88.4c-2.8-4.9-2.1-11,1.8-15.3c0.8-0.8,2.7-3,5.6-6
					l2.3-2.5c7-7.6,18-19.3,30.6-32.9c4.5-4.7,9.1-9.7,13.9-14.8l14.6-15.7l2.1-2.2c0.2-0.2,0.2-0.3,0.3-0.5
					c6.6-7,13.1-14.1,19.5-20.9c-8.7-0.5-17.6-0.7-26.5-0.7c-3.1,0-6.2,0-9.3,0.1h-0.7l-94.1-0.8c-5.7-0.1-10.6-3.8-12.4-9.2
					l-29.7-96.9c-1.8-6-7.1-9.2-12.5-9.2C1526.8,571.7,1522.5,573.8,1520,578.1"/>
			</defs>
			<clipPath id="SVGID_00000070096374370591521430000009949235910974628486_">
				<use xlink:href="#SVGID_00000181088209097412364870000001187734295764345273_"  style="overflow:visible;"/>
			</clipPath>
			
				<linearGradient id="SVGID_00000018208361650741979110000002005066162928191660_" gradientUnits="userSpaceOnUse" x1="1370.6405" y1="1817.7468" x2="1376.2896" y2="1817.7468" gradientTransform="matrix(73.6839 0 0 -73.6839 -99694.125 134718.125)">
				<stop  offset="0" style="stop-color:#FABD1E"/>
				<stop  offset="4.783200e-04" style="stop-color:#FABD1E"/>
				<stop  offset="1" style="stop-color:#F59A2C"/>
			</linearGradient>
			
				<rect x="1300" y="571.7" style="clip-path:url(#SVGID_00000070096374370591521430000009949235910974628486_);fill:url(#SVGID_00000018208361650741979110000002005066162928191660_);" width="416.3" height="415.5"/>
		</g>
		<g>
			<path class="st2" d="M784.5,1954.2c5.8,0,9.9,0.7,12.3,2c2.5,1.3,4.1,3.4,5,6.1c0.8,2.7,1.3,6.3,1.3,10.7c0,4.4-0.5,8-1.4,10.6
				c-0.9,2.7-2.4,4.5-4.5,5.5c-3.1,1.7-7.4,2.5-13.1,2.5h-82.4c-5.1,0-9.4-1.9-13.1-5.7c-3.7-3.8-5.5-8.2-5.5-13.3
				c0-7.6,2.6-14.6,7.9-21c5.3-6.4,11.6-11.9,19.1-16.4c7.4-4.6,14.9-9.1,22.3-13.5c7.4-4.4,13.8-9.4,19.1-15.1
				c5.3-5.6,7.9-11.6,7.9-17.9c0-1.3-0.5-3.1-1.5-5.4c-1-2.3-2.1-4.2-3.3-5.7c-1.2-1.5-3.1-2.8-5.6-4.1c-2.5-1.3-6-1.9-10.5-1.9
				c-4.5,0-8.4,1.6-11.7,4.9c-3.3,3.3-5.2,6.6-5.6,9.8l-0.8,4.8v1.3c0,3.1-0.1,5.4-0.3,7c-0.2,1.5-0.9,3.3-2,5.3
				c-2.1,3.4-7.6,5.1-16.4,5.1c-9.8,0-15.7-2.7-17.5-8c-0.7-2.2-1.1-5.8-1.1-10.8c0-14.6,5.2-27.7,15.7-39.3
				c10.5-11.6,24.2-17.4,41.1-17.4c16.9,0,30.7,5.9,41.2,17.6c10.5,11.7,15.8,25.1,15.8,40.1c0,8-1.8,15.6-5.3,22.8
				c-3.5,7.2-7.7,12.9-12.6,17.3c-10.4,9.3-19.7,15.5-27.8,18.7l-5.3,2.1v1.1H784.5z"/>
			<path class="st2" d="M913.5,1854.6c4.1-5.7,9.8-10.5,17.2-14.3c7.4-3.9,15.9-5.8,25.6-5.8c9.7,0,18.2,1.9,25.4,5.7
				c7.2,3.8,12.9,8.5,17.1,14.1c4.1,5.6,7.5,12.2,10,19.8c4.2,12.6,6.3,26.1,6.3,40.2c0,25.4-5.5,45.6-16.4,60.5
				c-4.1,5.6-9.7,10.3-17,13.9c-7.2,3.6-15.6,5.5-25.2,5.5c-9.6,0-18-1.9-25.4-5.6c-7.4-3.7-13.1-8.3-17.3-13.8
				c-4.1-5.5-7.6-12-10.2-19.6c-4.1-12.1-6.1-25.8-6.1-41.1c0-14,1.6-26.1,4.9-36C905.7,1868.1,909.4,1860.3,913.5,1854.6
				 M956,1956.7c14.5,0,21.7-13.8,21.7-41.3v-1.3c0-28.2-7.2-42.4-21.5-42.4c-14.3,0-21.5,14.2-21.5,42.5S941.8,1956.7,956,1956.7"
				/>
			<path class="st2" d="M1218.6,1954.2c5.8,0,9.9,0.7,12.3,2c2.5,1.3,4.1,3.4,5,6.1c0.8,2.7,1.3,6.3,1.3,10.7c0,4.4-0.5,8-1.4,10.6
				c-0.9,2.7-2.4,4.5-4.5,5.5c-3.1,1.7-7.4,2.5-13.1,2.5h-82.4c-5.1,0-9.4-1.9-13.1-5.7c-3.7-3.8-5.5-8.2-5.5-13.3
				c0-7.6,2.6-14.6,7.9-21c5.3-6.4,11.6-11.9,19.1-16.4c7.4-4.6,14.9-9.1,22.3-13.5c7.4-4.4,13.8-9.4,19.1-15.1
				c5.3-5.6,7.9-11.6,7.9-17.9c0-1.3-0.5-3.1-1.5-5.4c-1-2.3-2.1-4.2-3.3-5.7c-1.2-1.5-3.1-2.8-5.6-4.1c-2.5-1.3-6-1.9-10.5-1.9
				c-4.5,0-8.4,1.6-11.7,4.9c-3.3,3.3-5.2,6.6-5.6,9.8l-0.8,4.8v1.3c0,3.1-0.1,5.4-0.3,7c-0.2,1.5-0.9,3.3-2,5.3
				c-2.1,3.4-7.6,5.1-16.4,5.1c-9.8,0-15.7-2.7-17.5-8c-0.7-2.2-1.1-5.8-1.1-10.8c0-14.6,5.2-27.7,15.7-39.3
				c10.5-11.6,24.2-17.4,41.1-17.4c16.9,0,30.7,5.9,41.2,17.6c10.5,11.7,15.8,25.1,15.8,40.1c0,8-1.8,15.6-5.3,22.8
				c-3.5,7.2-7.7,12.9-12.6,17.3c-10.4,9.3-19.7,15.5-27.8,18.7l-5.3,2.1v1.1H1218.6z"/>
			<path class="st2" d="M1438.6,1954.2c5.8,0,9.9,0.7,12.3,2c2.5,1.3,4.1,3.4,5,6.1c0.8,2.7,1.3,6.3,1.3,10.7c0,4.4-0.5,8-1.4,10.6
				c-0.9,2.7-2.4,4.5-4.5,5.5c-3.1,1.7-7.4,2.5-13.1,2.5h-82.4c-5.1,0-9.4-1.9-13.1-5.7c-3.7-3.8-5.5-8.2-5.5-13.3
				c0-7.6,2.6-14.6,7.9-21c5.3-6.4,11.6-11.9,19.1-16.4c7.4-4.6,14.9-9.1,22.3-13.5c7.4-4.4,13.8-9.4,19.1-15.1
				c5.3-5.6,7.9-11.6,7.9-17.9c0-1.3-0.5-3.1-1.5-5.4c-1-2.3-2.1-4.2-3.3-5.7c-1.2-1.5-3.1-2.8-5.6-4.1c-2.5-1.3-6-1.9-10.5-1.9
				c-4.5,0-8.4,1.6-11.7,4.9c-3.3,3.3-5.2,6.6-5.6,9.8l-0.8,4.8v1.3c0,3.1-0.1,5.4-0.3,7c-0.2,1.5-0.9,3.3-2,5.3
				c-2.1,3.4-7.6,5.1-16.4,5.1c-9.8,0-15.7-2.7-17.5-8c-0.7-2.2-1.1-5.8-1.1-10.8c0-14.6,5.2-27.7,15.7-39.3
				c10.5-11.6,24.2-17.4,41.1-17.4c16.9,0,30.7,5.9,41.2,17.6c10.5,11.7,15.8,25.1,15.8,40.1c0,8-1.8,15.6-5.3,22.8
				s-7.7,12.9-12.6,17.3c-10.4,9.3-19.7,15.5-27.8,18.7l-5.3,2.1v1.1H1438.6z"/>
		</g>
	</g>
</g>
</svg>
